<?xml version="1.0" encoding="utf-8"?>
<!-- Generator: Adobe Illustrator 16.0.0, SVG Export Plug-In . SVG Version: 6.00 Build 0)  -->
<!DOCTYPE svg PUBLIC "-//W3C//DTD SVG 1.0//EN" "http://www.w3.org/TR/2001/REC-SVG-20010904/DTD/svg10.dtd">
<svg version="1.0" id="Layer_1" xmlns="http://www.w3.org/2000/svg" xmlns:xlink="http://www.w3.org/1999/xlink" x="0px" y="0px"
	 width="100px" height="100px" viewBox="0 0 100 100" enable-background="new 0 0 100 100" xml:space="preserve">
<path d="M83.333,10H16.667C13.001,10,10,13.001,10,16.667v66.667C10,86.999,13.001,90,16.667,90h66.666
	C86.999,90,90,86.999,90,83.333V16.667C90,13.001,86.999,10,83.333,10z M83.333,83.333H16.667V16.667h66.666V83.333z"/>
<path d="M65.29,67.946C63.962,69.271,62.204,70,60.335,70c-3.86,0-7.002-3.142-7.002-7.002V43.333h13.334v-6.667H53.333V23.333
	h-6.666v13.333h-10v6.667h10v19.665c0,7.546,6.119,13.669,13.668,13.669c3.776,0,7.191-1.533,9.665-4.004L65.29,67.946z"/>
</svg>
