<!-- Generator: Adobe Illustrator 22.1.0, SVG Export Plug-In  -->
<svg version="1.1"
	 xmlns="http://www.w3.org/2000/svg" xmlns:xlink="http://www.w3.org/1999/xlink" xmlns:a="http://ns.adobe.com/AdobeSVGViewerExtensions/3.0/"
	 x="0px" y="0px" width="244px" height="218.6px" viewBox="0 0 244 218.6" style="enable-background:new 0 0 244 218.6;"
	 xml:space="preserve">
<style type="text/css">
	.st0{fill:#0036BC;}
	.st1{fill:none;stroke:#002775;stroke-width:10;stroke-miterlimit:10;}
	.st2{fill:#0070C4;}
	.st3{fill:#00C405;}
	.st4{fill:none;stroke:#002775;stroke-width:3.4398;stroke-miterlimit:10;}
	.st5{fill:none;stroke:#006600;stroke-width:3;stroke-miterlimit:10;}
</style>
<defs>
</defs>
<g>
	<g>
		<ellipse class="st0" cx="92" cy="131.1" rx="92" ry="87.6"/>
		<g>
			<path class="st1" d="M62.3,193.6c-13.7,1.6-24.7-5.1-28.4-20.4"/>
		</g>
		<path class="st2" d="M100.8,61.4c1.3,5.6-4.3,11.8-12.6,13.8c-8.3,2-16.2-1-17.5-6.6C69.3,63,75,56.8,83.3,54.8
			C91.6,52.8,99.5,55.8,100.8,61.4z"/>
		<g>
			<g>
				<path class="st3" d="M227.6,91.9c5.5,5.6,10.8,10.9,16.3,16.6c-25.2,24.9-50.3,49.6-75.6,74.6c-13.2-13.4-26.2-26.6-39.5-40.1
					c5.4-5.3,10.7-10.6,16.3-16.1c7.8,7.9,15.5,15.6,23.2,23.5C188.1,130.8,207.7,111.5,227.6,91.9z"/>
			</g>
		</g>
		<g>
			<path class="st4" d="M102.8,76.8c0.5,1.3-0.1,2.1-1.5,1.7l-9.4-2.2c-1.4-0.3-3.4,0.1-4.5,1l-7.6,6c-1.1,0.9-2,0.4-2.1-1l-0.3-8.8
				c0-1.4-1.1-3.1-2.3-3.8L67,65.1c-1.2-0.7-1.1-1.6,0.2-2.1l9.3-3.4c1.3-0.5,2.7-2,3.1-3.3l2.4-8.7c0.4-1.3,1.4-1.6,2.3-0.5
				l5.9,6.8c0.9,1.1,2.8,1.8,4.2,1.7l9.9-0.8c1.4-0.1,1.9,0.7,1.1,1.8l-5.5,7.6c-0.8,1.1-1,3.1-0.5,4.4L102.8,76.8z"/>
		</g>
		<path class="st3" d="M48.7,41c-7.2-7.4-15.2-30-14.8-38.6c0.4-8.7,30.2,8.8,38.2,15.9c8,7.2,11.7,22.9,14.8,38.7
			C87.1,64.9,55.9,48.4,48.7,41z"/>
	</g>
	<g>
		<path class="st5" d="M60.4,44c-9.9-4.1-16.1-18.6-19.8-30.1"/>
	</g>
</g>
</svg>
